<?xml version="1.0" encoding="UTF-8"?>
<svg xmlns="http://www.w3.org/2000/svg" xmlns:xlink="http://www.w3.org/1999/xlink" width="120px" height="50px" viewBox="0 0 120 50" version="1.1">
<g id="surface1">
<path style=" stroke:none;fill-rule:nonzero;fill:rgb(0%,0%,0%);fill-opacity:1;" d="M 96.839844 5.882812 C 96.839844 6.132812 96 6.917969 95.039062 7.632812 C 92.839844 9.265625 91.921875 10 92.160156 10 C 92.238281 10 93.441406 9.167969 94.761719 8.148438 C 96.519531 6.832031 97.199219 6.148438 97.078125 5.851562 L 96.921875 5.417969 Z M 96.839844 5.882812 "/>
<path style=" stroke:none;fill-rule:nonzero;fill:rgb(0%,0%,0%);fill-opacity:1;" d="M 49.878906 6.785156 C 54.078125 6.816406 61.121094 6.816406 65.480469 6.785156 C 69.839844 6.765625 66.398438 6.75 57.800781 6.75 C 49.238281 6.75 45.640625 6.765625 49.878906 6.785156 Z M 49.878906 6.785156 "/>
<path style=" stroke:none;fill-rule:nonzero;fill:rgb(0%,0%,0%);fill-opacity:1;" d="M 23.359375 8.5 C 23.359375 9.464844 23.398438 9.851562 23.480469 9.367188 C 23.558594 8.898438 23.558594 8.101562 23.480469 7.617188 C 23.398438 7.148438 23.359375 7.535156 23.359375 8.5 Z M 23.359375 8.5 "/>
<path style=" stroke:none;fill-rule:nonzero;fill:rgb(0%,0%,0%);fill-opacity:1;" d="M 36.519531 7.648438 C 35.039062 8.101562 32.558594 9.25 31.800781 9.832031 C 31.359375 10.167969 31.878906 9.933594 33.800781 8.933594 C 34.640625 8.484375 36.160156 7.898438 37.160156 7.648438 C 38.160156 7.382812 38.761719 7.167969 38.519531 7.167969 C 38.320312 7.167969 37.398438 7.382812 36.519531 7.648438 Z M 36.519531 7.648438 "/>
<path style=" stroke:none;fill-rule:nonzero;fill:rgb(0%,0%,0%);fill-opacity:1;" d="M 31.078125 10.285156 C 29.121094 11.765625 27.960938 12.714844 28.28125 12.582031 C 28.839844 12.351562 31.71875 10.167969 31.441406 10.167969 C 31.359375 10.167969 31.160156 10.214844 31.078125 10.285156 Z M 31.078125 10.285156 "/>
<path style=" stroke:none;fill-rule:nonzero;fill:rgb(0%,0%,0%);fill-opacity:1;" d="M 64.199219 13.285156 C 62.039062 14.917969 60.199219 16.300781 60.121094 16.367188 C 60.039062 16.449219 60.039062 16.5 60.121094 16.5 C 60.28125 16.5 64.640625 13.25 68.28125 10.449219 C 68.359375 10.382812 68.359375 10.332031 68.28125 10.332031 C 68.160156 10.332031 66.320312 11.667969 64.199219 13.285156 Z M 64.199219 13.285156 "/>
<path style=" stroke:none;fill-rule:nonzero;fill:rgb(0%,0%,0%);fill-opacity:1;" d="M 22.960938 12.417969 C 22.960938 13.234375 23 13.601562 23.078125 13.214844 C 23.160156 12.832031 23.160156 12.148438 23.078125 11.714844 C 23 11.285156 22.960938 11.582031 22.960938 12.417969 Z M 22.960938 12.417969 "/>
<path style=" stroke:none;fill-rule:nonzero;fill:rgb(0%,0%,0%);fill-opacity:1;" d="M 87.160156 13.535156 C 86.878906 13.75 85.960938 14.484375 85.078125 15.167969 C 84.199219 15.851562 83.640625 16.332031 83.878906 16.25 C 84.441406 16.015625 88.121094 13.167969 87.839844 13.167969 C 87.71875 13.167969 87.398438 13.332031 87.160156 13.535156 Z M 87.160156 13.535156 "/>
<path style=" stroke:none;fill-rule:nonzero;fill:rgb(0%,0%,0%);fill-opacity:1;" d="M 79.558594 19.285156 C 78.640625 20 77.359375 20.984375 76.71875 21.449219 C 76.039062 21.933594 75.601562 22.332031 75.71875 22.332031 C 75.839844 22.332031 77 21.535156 78.320312 20.535156 C 81.359375 18.25 81.679688 18 81.441406 18 C 81.359375 18 80.519531 18.582031 79.558594 19.285156 Z M 79.558594 19.285156 "/>
<path style=" stroke:none;fill-rule:nonzero;fill:rgb(0%,0%,0%);fill-opacity:1;" d="M 57.160156 18.535156 C 56.878906 18.75 55.960938 19.484375 55.078125 20.167969 C 54.199219 20.851562 53.640625 21.332031 53.878906 21.25 C 54.441406 21.015625 58.121094 18.167969 57.839844 18.167969 C 57.71875 18.167969 57.398438 18.332031 57.160156 18.535156 Z M 57.160156 18.535156 "/>
<path style=" stroke:none;fill-rule:nonzero;fill:rgb(0%,0%,0%);fill-opacity:1;" d="M 52.601562 21.984375 C 52.238281 22.285156 51.601562 22.5 51 22.550781 C 50.039062 22.617188 50.039062 22.617188 51.078125 22.601562 C 51.839844 22.582031 52.359375 22.433594 52.921875 22.035156 C 53.320312 21.75 53.558594 21.5 53.441406 21.5 C 53.320312 21.5 52.960938 21.714844 52.601562 21.984375 Z M 52.601562 21.984375 "/>
<path style=" stroke:none;fill-rule:nonzero;fill:rgb(0%,0%,0%);fill-opacity:1;" d="M 24.558594 22.714844 C 24.441406 22.851562 24.441406 23.5 24.519531 24.183594 L 24.640625 25.417969 L 24.71875 24.050781 C 24.800781 22.699219 24.800781 22.683594 25.921875 22.617188 L 27 22.550781 L 25.878906 22.515625 C 25.28125 22.515625 24.679688 22.601562 24.558594 22.714844 Z M 24.558594 22.714844 "/>
<path style=" stroke:none;fill-rule:nonzero;fill:rgb(0%,0%,0%);fill-opacity:1;" d="M 27.398438 22.867188 C 27.199219 23.101562 25.199219 26.832031 25.199219 26.949219 C 25.199219 26.984375 25.601562 27 26.121094 26.964844 C 26.761719 26.933594 27.039062 26.785156 27.121094 26.449219 C 27.238281 26.082031 27.441406 26 28.359375 26 C 29.320312 26 29.558594 26.082031 29.761719 26.5 C 29.921875 26.851562 30.199219 27 30.800781 27 C 31.238281 27 31.601562 26.949219 31.601562 26.882812 C 31.601562 26.816406 31.121094 25.832031 30.519531 24.714844 C 29.519531 22.800781 29.398438 22.667969 28.519531 22.667969 C 28 22.667969 27.480469 22.765625 27.398438 22.867188 Z M 28.960938 24.617188 C 29.199219 25.433594 29.160156 25.5 28.398438 25.5 C 27.679688 25.5 27.601562 25.433594 27.839844 24.785156 C 28.320312 23.367188 28.558594 23.332031 28.960938 24.617188 Z M 28.960938 24.617188 "/>
<path style=" stroke:none;fill-rule:nonzero;fill:rgb(0%,0%,0%);fill-opacity:1;" d="M 33.519531 22.765625 C 33.359375 22.816406 33.71875 23.25 34.238281 23.714844 C 35.441406 24.785156 35.441406 24.785156 34.199219 25.933594 C 33.640625 26.449219 33.199219 26.898438 33.199219 26.933594 C 33.199219 26.964844 33.601562 27 34.121094 27 C 34.839844 27 35.160156 26.851562 35.679688 26.285156 L 36.320312 25.582031 L 37 26.285156 C 37.480469 26.765625 37.921875 27 38.441406 27 C 39.441406 27 39.398438 26.867188 38.199219 25.75 L 37.238281 24.816406 L 38.199219 23.882812 C 39.398438 22.765625 39.441406 22.667969 38.398438 22.667969 C 37.878906 22.667969 37.441406 22.832031 37.160156 23.117188 C 36.960938 23.382812 36.679688 23.699219 36.558594 23.832031 C 36.398438 24 36.121094 23.832031 35.71875 23.367188 C 35.160156 22.714844 34.238281 22.464844 33.519531 22.765625 Z M 33.519531 22.765625 "/>
<path style=" stroke:none;fill-rule:nonzero;fill:rgb(0%,0%,0%);fill-opacity:1;" d="M 41.519531 22.785156 C 41.441406 22.867188 41.359375 23.816406 41.398438 24.917969 C 41.398438 26.867188 41.441406 26.917969 42.320312 26.964844 C 43.199219 27.015625 43.199219 27 43.199219 24.851562 C 43.199219 22.800781 43.160156 22.667969 42.441406 22.667969 C 42 22.667969 41.601562 22.714844 41.519531 22.785156 Z M 41.519531 22.785156 "/>
<path style=" stroke:none;fill-rule:nonzero;fill:rgb(0%,0%,0%);fill-opacity:1;" d="M 46.078125 22.917969 C 45.28125 23.148438 45.160156 23.316406 45.28125 24.050781 C 45.398438 24.882812 45.441406 24.898438 47.121094 25.132812 C 48.640625 25.332031 48.839844 25.417969 48.71875 25.816406 C 48.558594 26.351562 47 26.449219 47 25.917969 C 47 25.699219 46.679688 25.566406 46.121094 25.535156 C 45.320312 25.484375 45.199219 25.550781 45.199219 25.984375 C 45.199219 26.632812 46.121094 27 47.800781 27 C 49.800781 27 50.480469 26.632812 50.320312 25.617188 C 50.199219 24.800781 50.160156 24.785156 48.601562 24.601562 C 47.199219 24.433594 47 24.351562 47 23.917969 C 47 23.535156 47.160156 23.417969 47.800781 23.417969 C 48.320312 23.417969 48.640625 23.550781 48.71875 23.785156 C 48.921875 24.367188 50.398438 24.300781 50.398438 23.699219 C 50.398438 23.050781 49.921875 22.832031 48.359375 22.734375 C 47.441406 22.683594 46.679688 22.734375 46.078125 22.917969 Z M 46.078125 22.917969 "/>
<path style=" stroke:none;fill-rule:nonzero;fill:rgb(0%,0%,0%);fill-opacity:1;" d="M 58.320312 22.785156 C 57.441406 22.867188 57.078125 23.382812 57.28125 24.25 C 57.398438 24.832031 57.519531 24.917969 59.121094 25.132812 C 60.640625 25.332031 60.839844 25.417969 60.71875 25.816406 C 60.558594 26.382812 59.078125 26.433594 58.878906 25.867188 C 58.800781 25.632812 58.480469 25.5 57.960938 25.5 C 57.398438 25.5 57.199219 25.617188 57.199219 25.984375 C 57.199219 26.632812 58.160156 27 59.800781 27 C 61.800781 27 62.480469 26.632812 62.320312 25.617188 C 62.199219 24.800781 62.160156 24.785156 60.601562 24.601562 C 59.199219 24.433594 59 24.351562 59 23.917969 C 59 23.535156 59.160156 23.417969 59.800781 23.417969 C 60.320312 23.417969 60.601562 23.535156 60.601562 23.75 C 60.601562 23.964844 60.921875 24.101562 61.519531 24.132812 C 62.28125 24.183594 62.398438 24.117188 62.398438 23.683594 C 62.398438 22.898438 60.679688 22.515625 58.320312 22.785156 Z M 58.320312 22.785156 "/>
<path style=" stroke:none;fill-rule:nonzero;fill:rgb(0%,0%,0%);fill-opacity:1;" d="M 64.160156 22.917969 C 63.800781 23.265625 64.359375 23.535156 65.238281 23.417969 C 65.960938 23.316406 66 23.417969 66 25.148438 C 66 26.882812 66.039062 27 66.800781 27 C 67.558594 27 67.601562 26.882812 67.601562 25.183594 C 67.601562 23.449219 67.640625 23.367188 68.398438 23.449219 C 69.039062 23.515625 69.199219 23.449219 69.199219 23.101562 C 69.199219 22.683594 69.121094 22.667969 66.800781 22.667969 C 65.039062 22.667969 64.320312 22.734375 64.160156 22.917969 Z M 64.160156 22.917969 "/>
<path style=" stroke:none;fill-rule:nonzero;fill:rgb(0%,0%,0%);fill-opacity:1;" d="M 71.199219 24.667969 C 71.199219 26.464844 71.28125 26.667969 71.960938 26.832031 C 73.199219 27.101562 74.71875 27.035156 75.601562 26.667969 C 76.359375 26.351562 76.398438 26.148438 76.320312 24.535156 C 76.199219 22.882812 76.160156 22.75 75.398438 22.75 C 74.640625 22.75 74.601562 22.867188 74.601562 24.5 C 74.601562 26.132812 74.558594 26.25 73.800781 26.25 C 73.039062 26.25 73 26.117188 72.878906 24.449219 C 72.800781 22.800781 72.71875 22.667969 72 22.667969 C 71.238281 22.667969 71.199219 22.785156 71.199219 24.667969 Z M 71.199219 24.667969 "/>
<path style=" stroke:none;fill-rule:nonzero;fill:rgb(0%,0%,0%);fill-opacity:1;" d="M 78.398438 24.832031 L 78.398438 27 L 80.320312 27 C 83.238281 27 83.601562 26.75 83.601562 24.785156 C 83.601562 23.316406 83.519531 23.167969 82.71875 22.933594 C 82.238281 22.785156 81.039062 22.667969 80.121094 22.667969 L 78.398438 22.667969 Z M 81.800781 24.832031 C 81.800781 26.183594 81.761719 26.25 80.921875 26.300781 C 80.039062 26.351562 80 26.316406 80 24.949219 C 80 23.5 80.160156 23.285156 81.199219 23.367188 C 81.679688 23.417969 81.800781 23.683594 81.800781 24.832031 Z M 81.800781 24.832031 "/>
<path style=" stroke:none;fill-rule:nonzero;fill:rgb(0%,0%,0%);fill-opacity:1;" d="M 85.601562 24.832031 C 85.601562 26.964844 85.640625 27.015625 86.441406 26.964844 C 87.238281 26.917969 87.28125 26.816406 87.28125 24.832031 C 87.28125 22.851562 87.238281 22.75 86.441406 22.699219 C 85.640625 22.648438 85.601562 22.699219 85.601562 24.832031 Z M 85.601562 24.832031 "/>
<path style=" stroke:none;fill-rule:nonzero;fill:rgb(0%,0%,0%);fill-opacity:1;" d="M 90.519531 22.832031 C 89.640625 22.984375 89.601562 23.082031 89.601562 24.816406 C 89.601562 26.816406 89.800781 27 92.160156 27 C 94.199219 27 94.800781 26.5 94.800781 24.832031 C 94.800781 23.550781 94.679688 23.285156 94 23 C 93.160156 22.648438 91.960938 22.601562 90.519531 22.832031 Z M 93 24.832031 C 93 26.132812 92.921875 26.25 92.199219 26.25 C 91.480469 26.25 91.398438 26.117188 91.28125 25.015625 C 91.160156 23.582031 91.320312 23.285156 92.28125 23.367188 C 92.921875 23.417969 93 23.617188 93 24.832031 Z M 93 24.832031 "/>
<path style=" stroke:none;fill-rule:nonzero;fill:rgb(0%,0%,0%);fill-opacity:1;" d="M 52.480469 25.035156 C 52.558594 25.316406 52.878906 25.398438 53.800781 25.398438 C 54.71875 25.398438 55.039062 25.316406 55.121094 25.035156 C 55.238281 24.714844 55.078125 24.667969 53.800781 24.667969 C 52.519531 24.667969 52.359375 24.714844 52.480469 25.035156 Z M 52.480469 25.035156 "/>
<path style=" stroke:none;fill-rule:nonzero;fill:rgb(0%,0%,0%);fill-opacity:1;" d="M 94.800781 27.167969 C 94.800781 27.265625 90 27.351562 81.761719 27.367188 L 68.761719 27.417969 L 66.761719 28.949219 C 65.640625 29.800781 64.839844 30.5 64.960938 30.5 C 65.078125 30.5 66 29.832031 67.078125 29 L 69 27.5 L 82.121094 27.5 C 93.480469 27.5 95.199219 27.464844 95.199219 27.25 C 95.199219 27.117188 95.121094 27 95 27 C 94.878906 27 94.800781 27.066406 94.800781 27.167969 Z M 94.800781 27.167969 "/>
<path style=" stroke:none;fill-rule:nonzero;fill:rgb(0%,0%,0%);fill-opacity:1;" d="M 24.71875 27.367188 C 25.121094 27.535156 45.601562 27.617188 45.601562 27.464844 C 45.601562 27.398438 40.839844 27.316406 35 27.300781 C 29.199219 27.265625 24.558594 27.300781 24.71875 27.367188 Z M 24.71875 27.367188 "/>
<path style=" stroke:none;fill-rule:nonzero;fill:rgb(0%,0%,0%);fill-opacity:1;" d="M 59.960938 34.035156 C 59.679688 34.25 58.761719 34.984375 57.878906 35.667969 C 57 36.351562 56.441406 36.832031 56.679688 36.75 C 57.238281 36.515625 60.921875 33.667969 60.640625 33.667969 C 60.519531 33.667969 60.199219 33.832031 59.960938 34.035156 Z M 59.960938 34.035156 "/>
<path style=" stroke:none;fill-rule:nonzero;fill:rgb(0%,0%,0%);fill-opacity:1;" d="M 98.558594 39.082031 C 98.558594 40 98.601562 40.351562 98.679688 39.867188 C 98.761719 39.382812 98.761719 38.632812 98.679688 38.199219 C 98.601562 37.765625 98.558594 38.167969 98.558594 39.082031 Z M 98.558594 39.082031 "/>
<path style=" stroke:none;fill-rule:nonzero;fill:rgb(0%,0%,0%);fill-opacity:1;" d="M 95.160156 38.199219 C 94.921875 38.417969 93.800781 39.300781 92.679688 40.167969 C 91.601562 41.035156 90.878906 41.667969 91.078125 41.582031 C 91.640625 41.351562 96.121094 37.832031 95.839844 37.832031 C 95.71875 37.832031 95.398438 38 95.160156 38.199219 Z M 95.160156 38.199219 "/>
<path style=" stroke:none;fill-rule:nonzero;fill:rgb(0%,0%,0%);fill-opacity:1;" d="M 49.199219 42.199219 C 47.601562 43.417969 46.199219 44.464844 46.121094 44.535156 C 46.039062 44.617188 46.039062 44.667969 46.121094 44.667969 C 46.28125 44.667969 47.761719 43.566406 52.28125 40.117188 C 52.359375 40.050781 52.359375 40 52.28125 40 C 52.160156 40 50.761719 41 49.199219 42.199219 Z M 49.199219 42.199219 "/>
<path style=" stroke:none;fill-rule:nonzero;fill:rgb(0%,0%,0%);fill-opacity:1;" d="M 98.160156 42.832031 C 98.160156 43.800781 98.199219 44.183594 98.28125 43.699219 C 98.359375 43.234375 98.359375 42.433594 98.28125 41.949219 C 98.199219 41.484375 98.160156 41.867188 98.160156 42.832031 Z M 98.160156 42.832031 "/>
<path style=" stroke:none;fill-rule:nonzero;fill:rgb(0%,0%,0%);fill-opacity:1;" d="M 23.441406 44 C 22 45.082031 20.800781 46.183594 20.800781 46.417969 L 20.800781 46.832031 L 98 46.832031 L 97.921875 45.785156 L 97.839844 44.75 L 97.71875 45.699219 L 97.558594 46.667969 L 21.199219 46.667969 L 21.199219 46.316406 C 21.199219 46.117188 22.078125 45.316406 23.160156 44.515625 C 25.601562 42.699219 26.480469 42 26.238281 42 C 26.160156 42 24.878906 42.898438 23.441406 44 Z M 23.441406 44 "/>
<path style=" stroke:none;fill-rule:nonzero;fill:rgb(0%,0%,0%);fill-opacity:1;" d="M 87.839844 43.433594 C 86.960938 43.867188 85.480469 44.417969 84.480469 44.683594 C 83.480469 44.949219 82.800781 45.167969 83.039062 45.167969 C 83.960938 45.167969 87.441406 43.949219 88.878906 43.117188 C 90.078125 42.417969 89.558594 42.582031 87.839844 43.433594 Z M 87.839844 43.433594 "/>
<path style=" stroke:none;fill-rule:nonzero;fill:rgb(0%,0%,0%);fill-opacity:1;" d="M 45.199219 45.167969 C 44.761719 45.5 44.878906 45.5 62.878906 45.464844 L 81 45.417969 L 63.238281 45.382812 C 47.71875 45.332031 45.558594 45.300781 45.761719 45.082031 C 46.078125 44.714844 45.679688 44.785156 45.199219 45.167969 Z M 45.199219 45.167969 "/>
</g>
</svg>

